<svg width="137" height="60" viewBox="0 0 137 137" fill="none" xmlns="http://www.w3.org/2000/svg">
<g filter="url(#filter0_d_1_146)">
<circle cx="68" cy="64" r="46" stroke="#8572FF" stroke-width="2"/>
<path d="M66.9029 110.998L67 50" stroke="#8572FF" stroke-width="2"/>
<circle cx="68.5" cy="64.5" r="63.5" stroke="#8572FF" stroke-width="2"/>
<path d="M24 76L67 50" stroke="#8572FF" stroke-width="2" stroke-linecap="round"/>
<path d="M67.3086 49.0488C66.839 48.7582 66.3201 48.9485 66.1496 49.4738C65.9792 49.9992 66.2217 50.6606 66.6914 50.9512L67.3086 49.0488ZM66.6914 50.9512L112.153 79.0803L112.77 77.1779L67.3086 49.0488L66.6914 50.9512Z" fill="#8572FF"/>
<path d="M24.0114 76.5001L112 78" stroke="#8572FF" stroke-width="2"/>
<circle cx="67.5" cy="41.2692" r="8.5" stroke="#8572FF" stroke-width="2"/>
<path d="M60.5 35.6486L61.4218 36.0362H61.4218L60.5 35.6486ZM67.5 19L68.4218 18.6124L67.5 16.4199L66.5782 18.6124L67.5 19ZM59.5 38.027L58.5782 37.6394L58.5331 37.7466L58.5138 37.8612L59.5 38.027ZM74.5 35.6486L75.4478 35.3298L75.4361 35.295L75.4218 35.2611L74.5 35.6486ZM75.5 38.6216L76.4786 38.4159L76.4665 38.3584L76.4478 38.3028L75.5 38.6216ZM75.0214 41.2057L75.2271 42.1843L77.1843 41.7729L76.9786 40.7943L75.0214 41.2057ZM61.4218 36.0362L68.4218 19.3876L66.5782 18.6124L59.5782 35.2611L61.4218 36.0362ZM59.9862 41.1659L60.4862 38.1929L58.5138 37.8612L58.0138 40.8341L59.9862 41.1659ZM60.4218 38.4146L61.4218 36.0362L59.5782 35.2611L58.5782 37.6394L60.4218 38.4146ZM66.5782 19.3876L73.5782 36.0362L75.4218 35.2611L68.4218 18.6124L66.5782 19.3876ZM73.5522 35.9675L74.5522 38.9404L76.4478 38.3028L75.4478 35.3298L73.5522 35.9675ZM74.5214 38.8274L75.0214 41.2057L76.9786 40.7943L76.4786 38.4159L74.5214 38.8274Z" fill="#8572FF"/>
<path d="M61.6465 68.857L70.857 59.6465" stroke="#8572FF" stroke-linecap="round"/>
<path d="M61.6465 71.857L70.857 62.6465" stroke="#8572FF" stroke-linecap="round"/>
</g>
<defs>
<filter id="filter0_d_1_146" x="0" y="0" width="137" height="137" filterUnits="userSpaceOnUse" color-interpolation-filters="sRGB">
<feFlood flood-opacity="0" result="BackgroundImageFix"/>
<feColorMatrix in="SourceAlpha" type="matrix" values="0 0 0 0 0 0 0 0 0 0 0 0 0 0 0 0 0 0 127 0" result="hardAlpha"/>
<feOffset dy="4"/>
<feGaussianBlur stdDeviation="2"/>
<feComposite in2="hardAlpha" operator="out"/>
<feColorMatrix type="matrix" values="0 0 0 0 0 0 0 0 0 0 0 0 0 0 0 0 0 0 0.25 0"/>
<feBlend mode="normal" in2="BackgroundImageFix" result="effect1_dropShadow_1_146"/>
<feBlend mode="normal" in="SourceGraphic" in2="effect1_dropShadow_1_146" result="shape"/>
</filter>
</defs>
</svg>
